<svg xmlns="http://www.w3.org/2000/svg" viewBox="0 0 120 40" class="logo" width="8rem" fill="var(--logo-color, #000)">
  <!-- Graduation Cap -->
  <path d="M15 12l-8 4v8c0 2.2 1.8 4 4 4h8c2.2 0 4-1.8 4-4v-8l-8-4z"/>
  <path d="M15 12l8 4v8c0 2.2-1.8 4-4 4h-8c-2.2 0-4-1.8-4-4v-8l8-4z"/>
  <path d="M7 16v6c0 1.1.9 2 2 2h12c1.1 0 2-.9 2-2v-6"/>
  
  <!-- Book -->
  <path d="M35 8h8c1.1 0 2 .9 2 2v20c0 1.1-.9 2-2 2h-8c-1.1 0-2-.9-2-2V10c0-1.1.9-2 2-2z"/>
  <path d="M35 12h8"/>
  <path d="M35 16h6"/>
  <path d="M35 20h8"/>
  <path d="M35 24h6"/>
  
  <!-- Lightbulb (idea/learning symbol) -->
  <circle cx="70" cy="20" r="8"/>
  <path d="M70 12v-2"/>
  <path d="M78 20h2"/>
  <path d="M70 28v2"/>
  <path d="M62 20h-2"/>
  <path d="M66 14l-1.4-1.4"/>
  <path d="M74 26l-1.4 1.4"/>
  <path d="M74 14l1.4-1.4"/>
  <path d="M66 26l1.4 1.4"/>
  <path d="M70 28c-2.2 0-4-1.8-4-4h8c0 2.2-1.8 4-4 4z"/>
  
  <!-- Text: "EDU" -->
  <text x="85" y="25" font-family="Arial, sans-serif" font-size="16" font-weight="bold" fill="var(--logo-color, #000)">EDU</text>
</svg>